<svg xmlns="http://www.w3.org/2000/svg" viewBox="0 0 1000 324">
  <path d="M434.006 320.213H378.93L413.977 3.786h55.074l-35.045 316.427zm-137.738-316.427c-10.871-.996-27.129 2.242-33.99 11.715l-119.961 304.712h55.824l16.707-46.221h102.508l9.721 46.221h49.339L334.77 3.786h-38.502zm-64.135 217.707l42.275-116.508 24.069 116.508H232.133zM710.086 187c.625-61.467-84.975-64.835-84.35-92.339.249-8.322 8.322-17.144 25.965-19.387 8.697-.748 32.766-1.24 60.02 6.455l10.714-50.089c-14.651-5.334-33.415-10.466-56.859-10.466-60.02 0-102.295 31.901-102.67 77.623-.375 33.79 30.162 52.677 53.232 63.892 23.695 11.589 31.651 18.917 31.526 29.258-.125 15.898-18.917 22.852-36.435 23.101-30.661.5-48.329-8.197-62.484-14.776l-11.09 51.807c14.278 6.579 40.616 12.337 67.942 12.587 64.234 0 106.259-31.526 106.489-80.666M900.89 320.213h50.464L898.897 3.786h-44.508c-10.246 0-18.817 5.957-22.602 15.149l-79.632 301.278h55.824l11.09-30.447h67.817l4.004 30.447zm-58.221-79.801l27.922-76.882 16.084 76.882h-44.006zM577.214 3.786L534.438 320.213h53.357L630.571 3.786h-53.357z" style="fill: #1434CB"/>
</svg>