<?xml version="1.0" encoding="UTF-8"?>
<svg width="512px" height="512px" viewBox="0 0 512 512" version="1.1" xmlns="http://www.w3.org/2000/svg">
    <g stroke="none" stroke-width="1" fill="none" fill-rule="evenodd">
        <g fill="#4A5568" fill-rule="nonzero">
            <path d="M256,48C141.6,48,48,141.6,48,256s93.6,208,208,208s208-93.6,208-208S370.4,48,256,48z M256,422.4c-91.5,0-166.4-74.9-166.4-166.4S164.5,89.6,256,89.6S422.4,164.5,422.4,256S347.5,422.4,256,422.4z"/>
            <path d="M369.2,178.2L235.8,311.6l-93-93c-6.4-6.4-16.7-6.4-23.1,0c-6.4,6.4-6.4,16.7,0,23.1l104.5,104.5c3.2,3.2,7.4,4.8,11.6,4.8s8.4-1.6,11.6-4.8l144.9-144.9c6.4-6.4,6.4-16.7,0-23.1C385.9,171.8,375.6,171.8,369.2,178.2z"/>
        </g>
    </g>
</svg>