<?xml version="1.0" encoding="UTF-8"?>
<svg width="512px" height="512px" viewBox="0 0 512 512" version="1.1" xmlns="http://www.w3.org/2000/svg">
    <g stroke="none" stroke-width="1" fill="none" fill-rule="evenodd">
        <g fill="#2F855A" fill-rule="nonzero">
            <path d="M466.5,83.7l-192-80c-4.7-2-10.1-2-14.8,0l-192,80C57.6,88.2,52,97.8,52,108.2v135.6c0,188.2,156.3,258.5,186.9,275.7c5.8,3.2,12.4,3.2,18.2,0C287.7,502.3,444,432,444,243.8V108.2C444,97.8,438.4,88.2,428.3,83.7z M404,243.8c0,157.2-125.4,216.8-156,234.4C217.4,460.6,92,400.9,92,243.8V117.1l160-66.7l160,66.7V243.8z"/>
            <path d="M256,178.5c-41.8,0-76.5,34.7-76.5,76.5s34.7,76.5,76.5,76.5s76.5-34.7,76.5-76.5S297.8,178.5,256,178.5z M256,291.5c-20.9,0-36.5-15.6-36.5-36.5s15.6-36.5,36.5-36.5s36.5,15.6,36.5,36.5S276.9,291.5,256,291.5z"/>
        </g>
    </g>
</svg>