<?xml version="1.0" encoding="UTF-8"?>
<svg width="512px" height="512px" viewBox="0 0 512 512" version="1.1" xmlns="http://www.w3.org/2000/svg">
    <g stroke="none" stroke-width="1" fill="none" fill-rule="evenodd">
        <g fill="#3182CE" fill-rule="nonzero">
            <path d="M400,224h-44.8c-4.3,0-8,3-8.9,7.2c-3.9,17.5-10.7,33.8-20.1,48.3c-2.7,4.2-2,9.8,1.7,13.1l31.7,31.7c8.3,8.3,8.3,21.8,0,30.1l-30.1,30.1c-8.3,8.3-21.8,8.3-30.1,0l-31.7-31.7c-3.3-3.7-8.9-4.4-13.1-1.7c-14.5,9.4-30.8,16.2-48.3,20.1c-4.2,0.9-7.2,4.6-7.2,8.9V424c0,12.1-9.9,22-22,22h-42.7c-12.1,0-22-9.9-22-22v-44.8c0-4.3-3-8-7.2-8.9c-17.5-3.9-33.8-10.7-48.3-20.1c-4.2-2.7-9.8-2-13.1,1.7l-31.7,31.7c-8.3,8.3-21.8,8.3-30.1,0l-30.1-30.1c-8.3-8.3-8.3-21.8,0-30.1l31.7-31.7c3.7-3.3,4.4-8.9,1.7-13.1c-9.4-14.5-16.2-30.8-20.1-48.3c-0.9-4.2-4.6-7.2-8.9-7.2H88c-12.1,0-22-9.9-22-22v-42.7c0-12.1,9.9-22,22-22h44.8c4.3,0,8-3,8.9-7.2c3.9-17.5,10.7-33.8,20.1-48.3c2.7-4.2,2-9.8-1.7-13.1l-31.7-31.7c-8.3-8.3-8.3-21.8,0-30.1l30.1-30.1c8.3-8.3,21.8-8.3,30.1,0l31.7,31.7c3.3,3.7,8.9,4.4,13.1,1.7c14.5-9.4,30.8-16.2,48.3-20.1c4.2-0.9,7.2-4.6,7.2-8.9V88c0-12.1,9.9-22,22-22h42.7c12.1,0,22,9.9,22,22v44.8c0,4.3,3,8,7.2,8.9c17.5,3.9,33.8,10.7,48.3,20.1c4.2,2.7,9.8,2,13.1-1.7l31.7-31.7c8.3-8.3,21.8-8.3,30.1,0l30.1,30.1c8.3,8.3,8.3,21.8,0,30.1l-31.7,31.7c-3.7,3.3-4.4,8.9-1.7,13.1c9.4,14.5,16.2,30.8,20.1,48.3c0.9,4.2,4.6,7.2,8.9,7.2H400c12.1,0,22,9.9,22,22v42.7C422,214.1,412.1,224,400,224z M256,176c-44.2,0-80,35.8-80,80s35.8,80,80,80s80-35.8,80-80S300.2,176,256,176z"/>
        </g>
    </g>
</svg>