<?xml version="1.0" encoding="UTF-8"?>
<svg width="1000px" height="324px" viewBox="0 0 1000 324" version="1.1" xmlns="http://www.w3.org/2000/svg">
    <g stroke="none" stroke-width="1" fill="none" fill-rule="evenodd">
        <g fill-rule="nonzero">
            <path d="M651.666667,0.676666667 L348.333333,0.676666667 C156.666667,0.676666667 0,157.343333 0,349.01 L0,652.343333 C0,844.01 156.666667,1000.67667 348.333333,1000.67667 L651.666667,1000.67667 C843.333333,1000.67667 1000,844.01 1000,652.343333 L1000,349.01 C1000,157.343333 843.333333,0.676666667 651.666667,0.676666667 Z" fill="#1A1F71"/>
            <path d="M416.666667,723.343333 L333.333333,277.343333 L250,277.343333 L333.333333,723.343333 L416.666667,723.343333 Z M750,277.343333 L670.833333,277.343333 C650,277.343333 633.333333,285.676667 625,302.343333 L483.333333,723.343333 L583.333333,723.343333 L600,677.343333 L741.666667,677.343333 L750,723.343333 L833.333333,723.343333 L750,277.343333 Z M625,610.676667 L691.666667,427.343333 L725,610.676667 L625,610.676667 Z M250,277.343333 L166.666667,527.343333 L158.333333,485.676667 C141.666667,435.676667 91.6666667,381.676667 33.3333333,356.676667 L108.333333,723.343333 L191.666667,723.343333 L333.333333,277.343333 L250,277.343333 Z" fill="#FFFFFF"/>
            <path d="M108.333333,277.343333 L0,277.343333 L0,285.676667 C75,302.343333 141.666667,344.01 166.666667,402.343333 L141.666667,310.676667 C133.333333,285.676667 116.666667,277.343333 108.333333,277.343333 Z" fill="#FAA61A"/>
        </g>
    </g>
</svg>